<?xml version="1.0" encoding="UTF-8"?>
<svg xmlns="http://www.w3.org/2000/svg" width="512" height="512" viewBox="0 0 512 512" role="img" aria-labelledby="title description">
  <title id="title">言序语言图标</title>
  <desc id="description">朱红色圆角方形中的白色言字与代码括号</desc>
  <defs>
    <filter id="shadow" x="-20%" y="-20%" width="140%" height="150%">
      <feDropShadow dx="0" dy="14" stdDeviation="16" flood-color="#52120D" flood-opacity="0.28"/>
    </filter>
  </defs>

  <g filter="url(#shadow)">
    <rect x="24" y="20" width="464" height="464" rx="108" fill="#C43B2F"/>
    <rect x="38" y="34" width="436" height="436" rx="96" fill="none" stroke="#FFFFFF" stroke-opacity="0.24" stroke-width="4"/>
  </g>

  <path d="M145 150H119C108 150 100 158 100 169V343C100 354 108 362 119 362H145"
        fill="none" stroke="#FFFFFF" stroke-opacity="0.68" stroke-width="16" stroke-linecap="round" stroke-linejoin="round"/>
  <path d="M367 150H393C404 150 412 158 412 169V343C412 354 404 362 393 362H367"
        fill="none" stroke="#FFFFFF" stroke-opacity="0.68" stroke-width="16" stroke-linecap="round" stroke-linejoin="round"/>

  <g fill="none" stroke="#FFFFFF" stroke-linecap="round" stroke-linejoin="round">
    <path d="M210 116H302" stroke-width="23"/>
    <path d="M158 174H354" stroke-width="25"/>
    <path d="M181 229H331" stroke-width="21"/>
    <rect x="176" y="272" width="160" height="112" rx="18" stroke-width="22"/>
    <path d="M188 326H324" stroke-width="18"/>
  </g>

  <circle cx="402" cy="112" r="10" fill="#FFFFFF" fill-opacity="0.82"/>
  <circle cx="430" cy="112" r="10" fill="#FFFFFF" fill-opacity="0.58"/>
</svg>
